solid tighter
facet normal 0.0 0.0 -1.0
  outer loop
    vertex 3.499999999999999 6.06217782649107 0.0
    vertex 1.8409820000000021 2.4992629999999996 0.0
    vertex 1.811733315717651 6.761480784023478 0.0
  endloop
endfacet
facet normal 0.0 0.0 -1.0
  outer loop
    vertex 1.8409820000000021 2.4992629999999996 0.0
    vertex 3.499999999999999 6.06217782649107 0.0
    vertex 4.317289000000002 2.4992629999999996 0.0
  endloop
endfacet
facet normal 0.0 0.0 -1.0
  outer loop
    vertex 4.317289000000002 2.4992629999999996 0.0
    vertex 3.499999999999999 6.06217782649107 0.0
    vertex 4.949747468305831 4.949747468305831 0.0
  endloop
endfacet
facet normal 0.0 0.0 -1.0
  outer loop
    vertex 4.317289000000002 2.4992629999999996 0.0
    vertex 4.949747468305831 4.949747468305831 0.0
    vertex 4.317289000000002 1.8061909999999999 0.0
  endloop
endfacet
facet normal 0.0 0.0 -1.0
  outer loop
    vertex 4.317289000000002 1.8061909999999999 0.0
    vertex 2.6875599999999973 0.8290190000000003 0.0
    vertex 2.6875599999999973 1.8061909999999999 0.0
  endloop
endfacet
facet normal 0.0 0.0 -1.0
  outer loop
    vertex 2.6875599999999973 0.8290190000000003 0.0
    vertex 4.317289000000002 1.8061909999999999 0.0
    vertex 6.890857578102591 0.8290190000000003 0.0
  endloop
endfacet
facet normal 0.0 0.0 -1.0
  outer loop
    vertex 6.890857578102591 0.8290190000000003 0.0
    vertex 4.317289000000002 1.8061909999999999 0.0
    vertex 4.949747468305831 4.949747468305831 0.0
  endloop
endfacet
facet normal 0.0 0.0 -1.0
  outer loop
    vertex 6.890857578102591 0.8290190000000003 0.0
    vertex 4.949747468305831 4.949747468305831 0.0
    vertex 6.062177826491066 3.499999999999999 0.0
  endloop
endfacet
facet normal 0.0 0.0 -1.0
  outer loop
    vertex 6.890857578102591 0.8290190000000003 0.0
    vertex 6.062177826491066 3.499999999999999 0.0
    vertex 6.761480784023473 1.8117333157176452 0.0
  endloop
endfacet
facet normal 0.0 0.0 -1.0
  outer loop
    vertex -1.811733315717648 6.761480784023478 0.0
    vertex -1.9999999999999998 1.9999999999999996 0.0
    vertex -3.4999999999999964 6.062177826491071 0.0
  endloop
endfacet
facet normal 0.0 0.0 -1.0
  outer loop
    vertex -1.9999999999999998 1.9999999999999996 0.0
    vertex -1.811733315717648 6.761480784023478 0.0
    vertex 1.7412050000000001 1.9999999999999996 0.0
  endloop
endfacet
facet normal 0.0 0.0 -1.0
  outer loop
    vertex 1.7412050000000001 1.9999999999999996 0.0
    vertex -1.811733315717648 6.761480784023478 0.0
    vertex 0.0 6.999999999999997 0.0
  endloop
endfacet
facet normal 0.0 0.0 -1.0
  outer loop
    vertex 1.7412050000000001 1.9999999999999996 0.0
    vertex 0.0 6.999999999999997 0.0
    vertex 1.811733315717651 6.761480784023478 0.0
  endloop
endfacet
facet normal 0.0 0.0 -1.0
  outer loop
    vertex 1.7412050000000001 1.9999999999999996 0.0
    vertex 1.811733315717651 6.761480784023478 0.0
    vertex 1.8117333157176396 -6.761480784023479 0.0
  endloop
endfacet
facet normal 0.0 0.0 -1.0
  outer loop
    vertex 1.8117333157176396 -6.761480784023479 0.0
    vertex 1.811733315717651 6.761480784023478 0.0
    vertex 1.8409820000000021 0.0 0.0
  endloop
endfacet
facet normal 0.0 0.0 -1.0
  outer loop
    vertex 1.8117333157176396 -6.761480784023479 0.0
    vertex 1.8409820000000021 0.0 0.0
    vertex 3.499999999999999 -6.062177826491074 0.0
  endloop
endfacet
facet normal 0.0 0.0 -1.0
  outer loop
    vertex 1.8409820000000021 0.0 0.0
    vertex 1.811733315717651 6.761480784023478 0.0
    vertex 1.8409820000000021 2.4992629999999996 0.0
  endloop
endfacet
facet normal 0.0 0.0 -1.0
  outer loop
    vertex 3.499999999999999 -6.062177826491074 0.0
    vertex 1.8409820000000021 0.0 0.0
    vertex 7.000000000000001 0.0 0.0
  endloop
endfacet
facet normal 0.0 0.0 -1.0
  outer loop
    vertex 3.499999999999999 -6.062177826491074 0.0
    vertex 7.000000000000001 0.0 0.0
    vertex 4.949747468305831 -4.949747468305836 0.0
  endloop
endfacet
facet normal 0.0 0.0 -1.0
  outer loop
    vertex 4.949747468305831 -4.949747468305836 0.0
    vertex 7.000000000000001 0.0 0.0
    vertex 6.062177826491066 -3.500000000000005 0.0
  endloop
endfacet
facet normal 0.0 0.0 -1.0
  outer loop
    vertex 6.062177826491066 -3.500000000000005 0.0
    vertex 7.000000000000001 0.0 0.0
    vertex 6.761480784023473 -1.8117333157176485 0.0
  endloop
endfacet
facet normal 0.0 0.0 -1.0
  outer loop
    vertex -4.949747468305834 4.949747468305831 0.0
    vertex -6.062177826491071 -3.499999999999999 0.0
    vertex -6.062177826491071 3.500000000000002 0.0
  endloop
endfacet
facet normal 0.0 0.0 -1.0
  outer loop
    vertex -6.062177826491071 -3.499999999999999 0.0
    vertex -4.949747468305834 4.949747468305831 0.0
    vertex -4.949747468305836 -4.949747468305834 0.0
  endloop
endfacet
facet normal 0.0 0.0 -1.0
  outer loop
    vertex -4.949747468305836 -4.949747468305834 0.0
    vertex -4.949747468305834 4.949747468305831 0.0
    vertex -3.5000000000000075 -6.062177826491069 0.0
  endloop
endfacet
facet normal 0.0 0.0 -1.0
  outer loop
    vertex -3.5000000000000075 -6.062177826491069 0.0
    vertex -4.949747468305834 4.949747468305831 0.0
    vertex -3.4999999999999964 6.062177826491071 0.0
  endloop
endfacet
facet normal 0.0 0.0 -1.0
  outer loop
    vertex -3.5000000000000075 -6.062177826491069 0.0
    vertex -3.4999999999999964 6.062177826491071 0.0
    vertex -1.811733315717648 -6.761480784023476 0.0
  endloop
endfacet
facet normal 0.0 0.0 -1.0
  outer loop
    vertex -1.811733315717648 -6.761480784023476 0.0
    vertex -3.4999999999999964 6.062177826491071 0.0
    vertex -1.9999999999999998 -1.999999999999999 0.0
  endloop
endfacet
facet normal 0.0 0.0 -1.0
  outer loop
    vertex -1.9999999999999998 -1.999999999999999 0.0
    vertex -3.4999999999999964 6.062177826491071 0.0
    vertex -1.9999999999999998 1.9999999999999996 0.0
  endloop
endfacet
facet normal 0.0 0.0 -1.0
  outer loop
    vertex -1.811733315717648 -6.761480784023476 0.0
    vertex -1.9999999999999998 -1.999999999999999 0.0
    vertex 1.7412049999999997 -1.9999999999999991 0.0
  endloop
endfacet
facet normal 0.0 0.0 -1.0
  outer loop
    vertex -1.811733315717648 -6.761480784023476 0.0
    vertex 1.7412049999999997 -1.9999999999999991 0.0
    vertex 0.0 -7.000000000000001 0.0
  endloop
endfacet
facet normal 0.0 0.0 -1.0
  outer loop
    vertex 0.0 -7.000000000000001 0.0
    vertex 1.7412049999999997 -1.9999999999999991 0.0
    vertex 1.8117333157176396 -6.761480784023479 0.0
  endloop
endfacet
facet normal 0.0 0.0 -1.0
  outer loop
    vertex 1.8117333157176396 -6.761480784023479 0.0
    vertex 1.7412049999999997 -1.9999999999999991 0.0
    vertex 1.7412050000000001 1.9999999999999996 0.0
  endloop
endfacet
facet normal -0.0 -0.0 1.0
  outer loop
    vertex -4.949747468305836 -4.949747468305834 1.9999999999999998
    vertex -6.062177826491071 3.500000000000002 1.9999999999999998
    vertex -6.062177826491071 -3.499999999999999 1.9999999999999998
  endloop
endfacet
facet normal -0.0 -0.0 1.0
  outer loop
    vertex -6.062177826491071 3.500000000000002 1.9999999999999998
    vertex -4.949747468305836 -4.949747468305834 1.9999999999999998
    vertex -4.949747468305834 4.949747468305831 1.9999999999999998
  endloop
endfacet
facet normal -0.0 -0.0 1.0
  outer loop
    vertex -4.949747468305834 4.949747468305831 1.9999999999999998
    vertex -4.949747468305836 -4.949747468305834 1.9999999999999998
    vertex -3.5000000000000075 -6.062177826491069 1.9999999999999998
  endloop
endfacet
facet normal -0.0 -0.0 1.0
  outer loop
    vertex -4.949747468305834 4.949747468305831 1.9999999999999998
    vertex -3.5000000000000075 -6.062177826491069 1.9999999999999998
    vertex -3.4999999999999964 6.062177826491071 1.9999999999999998
  endloop
endfacet
facet normal -0.0 -0.0 1.0
  outer loop
    vertex -3.4999999999999964 6.062177826491071 1.9999999999999998
    vertex -3.5000000000000075 -6.062177826491069 1.9999999999999998
    vertex -1.811733315717648 -6.761480784023476 1.9999999999999998
  endloop
endfacet
facet normal -0.0 -0.0 1.0
  outer loop
    vertex -3.4999999999999964 6.062177826491071 1.9999999999999998
    vertex -1.811733315717648 -6.761480784023476 1.9999999999999998
    vertex -1.811733315717648 6.761480784023478 1.9999999999999998
  endloop
endfacet
facet normal -0.0 -0.0 1.0
  outer loop
    vertex -1.811733315717648 6.761480784023478 1.9999999999999998
    vertex -1.811733315717648 -6.761480784023476 1.9999999999999998
    vertex 0.0 -7.000000000000001 1.9999999999999998
  endloop
endfacet
facet normal -0.0 -0.0 1.0
  outer loop
    vertex -1.811733315717648 6.761480784023478 1.9999999999999998
    vertex 0.0 -7.000000000000001 1.9999999999999998
    vertex 0.0 6.999999999999997 1.9999999999999998
  endloop
endfacet
facet normal -0.0 -0.0 1.0
  outer loop
    vertex 0.0 6.999999999999997 1.9999999999999998
    vertex 0.0 -7.000000000000001 1.9999999999999998
    vertex 1.8117333157176396 -6.761480784023479 1.9999999999999998
  endloop
endfacet
facet normal -0.0 -0.0 1.0
  outer loop
    vertex 0.0 6.999999999999997 1.9999999999999998
    vertex 1.8117333157176396 -6.761480784023479 1.9999999999999998
    vertex 1.811733315717651 6.761480784023478 1.9999999999999998
  endloop
endfacet
facet normal -0.0 -0.0 1.0
  outer loop
    vertex 1.811733315717651 6.761480784023478 1.9999999999999998
    vertex 1.8117333157176396 -6.761480784023479 1.9999999999999998
    vertex 1.8409820000000021 0.0 1.9999999999999998
  endloop
endfacet
facet normal -0.0 -0.0 1.0
  outer loop
    vertex 1.8409820000000021 0.0 1.9999999999999998
    vertex 1.8117333157176396 -6.761480784023479 1.9999999999999998
    vertex 3.499999999999999 -6.062177826491074 1.9999999999999998
  endloop
endfacet
facet normal -0.0 -0.0 1.0
  outer loop
    vertex 1.8409820000000021 0.0 1.9999999999999998
    vertex 3.499999999999999 -6.062177826491074 1.9999999999999998
    vertex 7.000000000000001 0.0 1.9999999999999998
  endloop
endfacet
facet normal -0.0 -0.0 1.0
  outer loop
    vertex 7.000000000000001 0.0 1.9999999999999998
    vertex 3.499999999999999 -6.062177826491074 1.9999999999999998
    vertex 4.949747468305831 -4.949747468305836 1.9999999999999998
  endloop
endfacet
facet normal -0.0 -0.0 1.0
  outer loop
    vertex 7.000000000000001 0.0 1.9999999999999998
    vertex 4.949747468305831 -4.949747468305836 1.9999999999999998
    vertex 6.062177826491066 -3.500000000000005 1.9999999999999998
  endloop
endfacet
facet normal -0.0 -0.0 1.0
  outer loop
    vertex 7.000000000000001 0.0 1.9999999999999998
    vertex 6.062177826491066 -3.500000000000005 1.9999999999999998
    vertex 6.761480784023473 -1.8117333157176485 1.9999999999999998
  endloop
endfacet
facet normal -0.0 -0.0 1.0
  outer loop
    vertex 6.890857578102591 0.8290190000000003 1.9999999999999998
    vertex 2.6875599999999973 1.8061909999999999 1.9999999999999998
    vertex 2.6875599999999973 0.8290190000000003 1.9999999999999998
  endloop
endfacet
facet normal -0.0 -0.0 1.0
  outer loop
    vertex 2.6875599999999973 1.8061909999999999 1.9999999999999998
    vertex 6.890857578102591 0.8290190000000003 1.9999999999999998
    vertex 4.317289000000002 1.8061909999999999 1.9999999999999998
  endloop
endfacet
facet normal -0.0 -0.0 1.0
  outer loop
    vertex 4.317289000000002 1.8061909999999999 1.9999999999999998
    vertex 6.890857578102591 0.8290190000000003 1.9999999999999998
    vertex 4.317289000000002 2.4992629999999996 1.9999999999999998
  endloop
endfacet
facet normal -0.0 -0.0 1.0
  outer loop
    vertex 4.317289000000002 2.4992629999999996 1.9999999999999998
    vertex 6.890857578102591 0.8290190000000003 1.9999999999999998
    vertex 4.949747468305831 4.949747468305831 1.9999999999999998
  endloop
endfacet
facet normal -0.0 -0.0 1.0
  outer loop
    vertex 4.949747468305831 4.949747468305831 1.9999999999999998
    vertex 6.890857578102591 0.8290190000000003 1.9999999999999998
    vertex 6.062177826491066 3.499999999999999 1.9999999999999998
  endloop
endfacet
facet normal -0.0 -0.0 1.0
  outer loop
    vertex 6.062177826491066 3.499999999999999 1.9999999999999998
    vertex 6.890857578102591 0.8290190000000003 1.9999999999999998
    vertex 6.761480784023473 1.8117333157176452 1.9999999999999998
  endloop
endfacet
facet normal -0.0 -0.0 1.0
  outer loop
    vertex 1.811733315717651 6.761480784023478 1.9999999999999998
    vertex 1.8409820000000021 2.4992629999999996 1.9999999999999998
    vertex 3.499999999999999 6.06217782649107 1.9999999999999998
  endloop
endfacet
facet normal -0.0 -0.0 1.0
  outer loop
    vertex 1.8409820000000021 2.4992629999999996 1.9999999999999998
    vertex 1.811733315717651 6.761480784023478 1.9999999999999998
    vertex 1.8409820000000021 0.0 1.9999999999999998
  endloop
endfacet
facet normal -0.0 -0.0 1.0
  outer loop
    vertex 3.499999999999999 6.06217782649107 1.9999999999999998
    vertex 1.8409820000000021 2.4992629999999996 1.9999999999999998
    vertex 4.317289000000002 2.4992629999999996 1.9999999999999998
  endloop
endfacet
facet normal -0.0 -0.0 1.0
  outer loop
    vertex 3.499999999999999 6.06217782649107 1.9999999999999998
    vertex 4.317289000000002 2.4992629999999996 1.9999999999999998
    vertex 4.949747468305831 4.949747468305831 1.9999999999999998
  endloop
endfacet
facet normal 0.9914448613738103 0.1305261922200526 -0.0
  outer loop
    vertex 6.761480784023473 1.8117333157176452 0.0
    vertex 6.890857578102591 0.8290190000000003 1.9999999999999998
    vertex 6.890857578102591 0.8290190000000003 0.0
  endloop
endfacet
facet normal 0.9914448613738103 0.1305261922200526 -0.0
  outer loop
    vertex 6.890857578102591 0.8290190000000003 1.9999999999999998
    vertex 6.761480784023473 1.8117333157176452 0.0
    vertex 6.761480784023473 1.8117333157176452 1.9999999999999998
  endloop
endfacet
facet normal 0.0 -1.0 0.0
  outer loop
    vertex 6.890857578102591 0.8290190000000003 1.9999999999999998
    vertex 2.6875599999999973 0.8290190000000003 0.0
    vertex 6.890857578102591 0.8290190000000003 0.0
  endloop
endfacet
facet normal 0.0 -1.0 0.0
  outer loop
    vertex 2.6875599999999973 0.8290190000000003 0.0
    vertex 6.890857578102591 0.8290190000000003 1.9999999999999998
    vertex 2.6875599999999973 0.8290190000000003 1.9999999999999998
  endloop
endfacet
facet normal -1.0 0.0 0.0
  outer loop
    vertex 2.6875599999999973 1.8061909999999999 1.9999999999999998
    vertex 2.6875599999999973 0.8290190000000003 0.0
    vertex 2.6875599999999973 0.8290190000000003 1.9999999999999998
  endloop
endfacet
facet normal -1.0 0.0 0.0
  outer loop
    vertex 2.6875599999999973 0.8290190000000003 0.0
    vertex 2.6875599999999973 1.8061909999999999 1.9999999999999998
    vertex 2.6875599999999973 1.8061909999999999 0.0
  endloop
endfacet
facet normal -0.0 1.0 -0.0
  outer loop
    vertex 2.6875599999999973 1.8061909999999999 1.9999999999999998
    vertex 4.317289000000002 1.8061909999999999 0.0
    vertex 2.6875599999999973 1.8061909999999999 0.0
  endloop
endfacet
facet normal -0.0 1.0 -0.0
  outer loop
    vertex 4.317289000000002 1.8061909999999999 0.0
    vertex 2.6875599999999973 1.8061909999999999 1.9999999999999998
    vertex 4.317289000000002 1.8061909999999999 1.9999999999999998
  endloop
endfacet
facet normal -1.0 0.0 0.0
  outer loop
    vertex 4.317289000000002 2.4992629999999996 1.9999999999999998
    vertex 4.317289000000002 1.8061909999999999 0.0
    vertex 4.317289000000002 1.8061909999999999 1.9999999999999998
  endloop
endfacet
facet normal -1.0 0.0 0.0
  outer loop
    vertex 4.317289000000002 1.8061909999999999 0.0
    vertex 4.317289000000002 2.4992629999999996 1.9999999999999998
    vertex 4.317289000000002 2.4992629999999996 0.0
  endloop
endfacet
facet normal 0.0 -1.0 0.0
  outer loop
    vertex 4.317289000000002 2.4992629999999996 1.9999999999999998
    vertex 1.8409820000000021 2.4992629999999996 0.0
    vertex 4.317289000000002 2.4992629999999996 0.0
  endloop
endfacet
facet normal 0.0 -1.0 0.0
  outer loop
    vertex 1.8409820000000021 2.4992629999999996 0.0
    vertex 4.317289000000002 2.4992629999999996 1.9999999999999998
    vertex 1.8409820000000021 2.4992629999999996 1.9999999999999998
  endloop
endfacet
facet normal 1.0 -0.0 -0.0
  outer loop
    vertex 1.8409820000000021 2.4992629999999996 0.0
    vertex 1.8409820000000021 0.0 1.9999999999999998
    vertex 1.8409820000000021 0.0 0.0
  endloop
endfacet
facet normal 1.0 -0.0 -0.0
  outer loop
    vertex 1.8409820000000021 0.0 1.9999999999999998
    vertex 1.8409820000000021 2.4992629999999996 0.0
    vertex 1.8409820000000021 2.4992629999999996 1.9999999999999998
  endloop
endfacet
facet normal -0.0 1.0 -0.0
  outer loop
    vertex 1.8409820000000021 0.0 1.9999999999999998
    vertex 7.000000000000001 0.0 0.0
    vertex 1.8409820000000021 0.0 0.0
  endloop
endfacet
facet normal -0.0 1.0 -0.0
  outer loop
    vertex 7.000000000000001 0.0 0.0
    vertex 1.8409820000000021 0.0 1.9999999999999998
    vertex 7.000000000000001 0.0 1.9999999999999998
  endloop
endfacet
facet normal 0.99144486137381 -0.13052619222005454 -0.0
  outer loop
    vertex 7.000000000000001 0.0 0.0
    vertex 6.761480784023473 -1.8117333157176485 1.9999999999999998
    vertex 6.761480784023473 -1.8117333157176485 0.0
  endloop
endfacet
facet normal 0.99144486137381 -0.13052619222005454 -0.0
  outer loop
    vertex 6.761480784023473 -1.8117333157176485 1.9999999999999998
    vertex 7.000000000000001 0.0 0.0
    vertex 7.000000000000001 0.0 1.9999999999999998
  endloop
endfacet
facet normal 0.9238795325112868 -0.3826834323650895 -0.0
  outer loop
    vertex 6.761480784023473 -1.8117333157176485 0.0
    vertex 6.062177826491066 -3.500000000000005 1.9999999999999998
    vertex 6.062177826491066 -3.500000000000005 0.0
  endloop
endfacet
facet normal 0.9238795325112868 -0.3826834323650895 -0.0
  outer loop
    vertex 6.062177826491066 -3.500000000000005 1.9999999999999998
    vertex 6.761480784023473 -1.8117333157176485 0.0
    vertex 6.761480784023473 -1.8117333157176485 1.9999999999999998
  endloop
endfacet
facet normal 0.7933533402912358 -0.6087614290087199 -0.0
  outer loop
    vertex 6.062177826491066 -3.500000000000005 0.0
    vertex 4.949747468305831 -4.949747468305836 1.9999999999999998
    vertex 4.949747468305831 -4.949747468305836 0.0
  endloop
endfacet
facet normal 0.7933533402912358 -0.6087614290087199 -0.0
  outer loop
    vertex 4.949747468305831 -4.949747468305836 1.9999999999999998
    vertex 6.062177826491066 -3.500000000000005 0.0
    vertex 6.062177826491066 -3.500000000000005 1.9999999999999998
  endloop
endfacet
facet normal 0.6087614290087209 -0.7933533402912352 0.0
  outer loop
    vertex 4.949747468305831 -4.949747468305836 1.9999999999999998
    vertex 3.499999999999999 -6.062177826491074 0.0
    vertex 4.949747468305831 -4.949747468305836 0.0
  endloop
endfacet
facet normal 0.6087614290087209 -0.7933533402912352 0.0
  outer loop
    vertex 3.499999999999999 -6.062177826491074 0.0
    vertex 4.949747468305831 -4.949747468305836 1.9999999999999998
    vertex 3.499999999999999 -6.062177826491074 1.9999999999999998
  endloop
endfacet
facet normal 0.3826834323650876 -0.9238795325112878 0.0
  outer loop
    vertex 3.499999999999999 -6.062177826491074 1.9999999999999998
    vertex 1.8117333157176396 -6.761480784023479 0.0
    vertex 3.499999999999999 -6.062177826491074 0.0
  endloop
endfacet
facet normal 0.3826834323650876 -0.9238795325112878 0.0
  outer loop
    vertex 1.8117333157176396 -6.761480784023479 0.0
    vertex 3.499999999999999 -6.062177826491074 1.9999999999999998
    vertex 1.8117333157176396 -6.761480784023479 1.9999999999999998
  endloop
endfacet
facet normal 0.13052619222005216 -0.9914448613738105 0.0
  outer loop
    vertex 1.8117333157176396 -6.761480784023479 1.9999999999999998
    vertex 0.0 -7.000000000000001 0.0
    vertex 1.8117333157176396 -6.761480784023479 0.0
  endloop
endfacet
facet normal 0.13052619222005216 -0.9914448613738105 0.0
  outer loop
    vertex 0.0 -7.000000000000001 0.0
    vertex 1.8117333157176396 -6.761480784023479 1.9999999999999998
    vertex 0.0 -7.000000000000001 1.9999999999999998
  endloop
endfacet
facet normal -0.13052619222005307 -0.9914448613738103 0.0
  outer loop
    vertex 0.0 -7.000000000000001 1.9999999999999998
    vertex -1.811733315717648 -6.761480784023476 0.0
    vertex 0.0 -7.000000000000001 0.0
  endloop
endfacet
facet normal -0.13052619222005307 -0.9914448613738103 0.0
  outer loop
    vertex -1.811733315717648 -6.761480784023476 0.0
    vertex 0.0 -7.000000000000001 1.9999999999999998
    vertex -1.811733315717648 -6.761480784023476 1.9999999999999998
  endloop
endfacet
facet normal -0.3826834323650889 -0.9238795325112871 0.0
  outer loop
    vertex -1.811733315717648 -6.761480784023476 1.9999999999999998
    vertex -3.5000000000000075 -6.062177826491069 0.0
    vertex -1.811733315717648 -6.761480784023476 0.0
  endloop
endfacet
facet normal -0.3826834323650889 -0.9238795325112871 0.0
  outer loop
    vertex -3.5000000000000075 -6.062177826491069 0.0
    vertex -1.811733315717648 -6.761480784023476 1.9999999999999998
    vertex -3.5000000000000075 -6.062177826491069 1.9999999999999998
  endloop
endfacet
facet normal -0.6087614290087207 -0.7933533402912352 0.0
  outer loop
    vertex -3.5000000000000075 -6.062177826491069 1.9999999999999998
    vertex -4.949747468305836 -4.949747468305834 0.0
    vertex -3.5000000000000075 -6.062177826491069 0.0
  endloop
endfacet
facet normal -0.6087614290087207 -0.7933533402912352 0.0
  outer loop
    vertex -4.949747468305836 -4.949747468305834 0.0
    vertex -3.5000000000000075 -6.062177826491069 1.9999999999999998
    vertex -4.949747468305836 -4.949747468305834 1.9999999999999998
  endloop
endfacet
facet normal -0.7933533402912364 -0.6087614290087191 0.0
  outer loop
    vertex -6.062177826491071 -3.499999999999999 1.9999999999999998
    vertex -4.949747468305836 -4.949747468305834 0.0
    vertex -4.949747468305836 -4.949747468305834 1.9999999999999998
  endloop
endfacet
facet normal -0.7933533402912364 -0.6087614290087191 0.0
  outer loop
    vertex -4.949747468305836 -4.949747468305834 0.0
    vertex -6.062177826491071 -3.499999999999999 1.9999999999999998
    vertex -6.062177826491071 -3.499999999999999 0.0
  endloop
endfacet
facet normal -1.0 0.0 0.0
  outer loop
    vertex -6.062177826491071 3.500000000000002 1.9999999999999998
    vertex -6.062177826491071 -3.499999999999999 0.0
    vertex -6.062177826491071 -3.499999999999999 1.9999999999999998
  endloop
endfacet
facet normal -1.0 0.0 0.0
  outer loop
    vertex -6.062177826491071 -3.499999999999999 0.0
    vertex -6.062177826491071 3.500000000000002 1.9999999999999998
    vertex -6.062177826491071 3.500000000000002 0.0
  endloop
endfacet
facet normal -0.7933533402912345 0.6087614290087217 0.0
  outer loop
    vertex -4.949747468305834 4.949747468305831 1.9999999999999998
    vertex -6.062177826491071 3.500000000000002 0.0
    vertex -6.062177826491071 3.500000000000002 1.9999999999999998
  endloop
endfacet
facet normal -0.7933533402912345 0.6087614290087217 0.0
  outer loop
    vertex -6.062177826491071 3.500000000000002 0.0
    vertex -4.949747468305834 4.949747468305831 1.9999999999999998
    vertex -4.949747468305834 4.949747468305831 0.0
  endloop
endfacet
facet normal -0.6087614290087203 0.7933533402912354 -0.0
  outer loop
    vertex -4.949747468305834 4.949747468305831 1.9999999999999998
    vertex -3.4999999999999964 6.062177826491071 0.0
    vertex -4.949747468305834 4.949747468305831 0.0
  endloop
endfacet
facet normal -0.6087614290087203 0.7933533402912354 -0.0
  outer loop
    vertex -3.4999999999999964 6.062177826491071 0.0
    vertex -4.949747468305834 4.949747468305831 1.9999999999999998
    vertex -3.4999999999999964 6.062177826491071 1.9999999999999998
  endloop
endfacet
facet normal -0.38268343236509045 0.9238795325112865 -0.0
  outer loop
    vertex -3.4999999999999964 6.062177826491071 1.9999999999999998
    vertex -1.811733315717648 6.761480784023478 0.0
    vertex -3.4999999999999964 6.062177826491071 0.0
  endloop
endfacet
facet normal -0.38268343236509045 0.9238795325112865 -0.0
  outer loop
    vertex -1.811733315717648 6.761480784023478 0.0
    vertex -3.4999999999999964 6.062177826491071 1.9999999999999998
    vertex -1.811733315717648 6.761480784023478 1.9999999999999998
  endloop
endfacet
facet normal -0.13052619222005005 0.9914448613738107 -0.0
  outer loop
    vertex -1.811733315717648 6.761480784023478 1.9999999999999998
    vertex 0.0 6.999999999999997 0.0
    vertex -1.811733315717648 6.761480784023478 0.0
  endloop
endfacet
facet normal -0.13052619222005005 0.9914448613738107 -0.0
  outer loop
    vertex 0.0 6.999999999999997 0.0
    vertex -1.811733315717648 6.761480784023478 1.9999999999999998
    vertex 0.0 6.999999999999997 1.9999999999999998
  endloop
endfacet
facet normal 0.1305261922200498 0.9914448613738107 -0.0
  outer loop
    vertex 0.0 6.999999999999997 1.9999999999999998
    vertex 1.811733315717651 6.761480784023478 0.0
    vertex 0.0 6.999999999999997 0.0
  endloop
endfacet
facet normal 0.1305261922200498 0.9914448613738107 -0.0
  outer loop
    vertex 1.811733315717651 6.761480784023478 0.0
    vertex 0.0 6.999999999999997 1.9999999999999998
    vertex 1.811733315717651 6.761480784023478 1.9999999999999998
  endloop
endfacet
facet normal 0.38268343236509106 0.9238795325112862 -0.0
  outer loop
    vertex 1.811733315717651 6.761480784023478 1.9999999999999998
    vertex 3.499999999999999 6.06217782649107 0.0
    vertex 1.811733315717651 6.761480784023478 0.0
  endloop
endfacet
facet normal 0.38268343236509106 0.9238795325112862 -0.0
  outer loop
    vertex 3.499999999999999 6.06217782649107 0.0
    vertex 1.811733315717651 6.761480784023478 1.9999999999999998
    vertex 3.499999999999999 6.06217782649107 1.9999999999999998
  endloop
endfacet
facet normal 0.6087614290087213 0.7933533402912347 -0.0
  outer loop
    vertex 3.499999999999999 6.06217782649107 1.9999999999999998
    vertex 4.949747468305831 4.949747468305831 0.0
    vertex 3.499999999999999 6.06217782649107 0.0
  endloop
endfacet
facet normal 0.6087614290087213 0.7933533402912347 -0.0
  outer loop
    vertex 4.949747468305831 4.949747468305831 0.0
    vertex 3.499999999999999 6.06217782649107 1.9999999999999998
    vertex 4.949747468305831 4.949747468305831 1.9999999999999998
  endloop
endfacet
facet normal 0.7933533402912358 0.6087614290087199 -0.0
  outer loop
    vertex 4.949747468305831 4.949747468305831 0.0
    vertex 6.062177826491066 3.499999999999999 1.9999999999999998
    vertex 6.062177826491066 3.499999999999999 0.0
  endloop
endfacet
facet normal 0.7933533402912358 0.6087614290087199 -0.0
  outer loop
    vertex 6.062177826491066 3.499999999999999 1.9999999999999998
    vertex 4.949747468305831 4.949747468305831 0.0
    vertex 4.949747468305831 4.949747468305831 1.9999999999999998
  endloop
endfacet
facet normal 0.9238795325112867 0.38268343236509 -0.0
  outer loop
    vertex 6.062177826491066 3.499999999999999 0.0
    vertex 6.761480784023473 1.8117333157176452 1.9999999999999998
    vertex 6.761480784023473 1.8117333157176452 0.0
  endloop
endfacet
facet normal 0.9238795325112867 0.38268343236509 -0.0
  outer loop
    vertex 6.761480784023473 1.8117333157176452 1.9999999999999998
    vertex 6.062177826491066 3.499999999999999 0.0
    vertex 6.062177826491066 3.499999999999999 1.9999999999999998
  endloop
endfacet
facet normal 0.13052619222005177 -0.9914448613738105 0.0
  outer loop
    vertex 1.8117333157176425 -6.761480784023473 20.0
    vertex -2.8199664825478975e-15 -6.999999999999996 18.0
    vertex 1.8117333157176425 -6.761480784023473 18.0
  endloop
endfacet
facet normal 0.13052619222005177 -0.9914448613738105 0.0
  outer loop
    vertex -2.8199664825478975e-15 -6.999999999999996 18.0
    vertex 1.8117333157176425 -6.761480784023473 20.0
    vertex -2.8199664825478975e-15 -6.999999999999996 20.0
  endloop
endfacet
facet normal 0.7933533402912352 -0.6087614290087209 -0.0
  outer loop
    vertex 6.062177826491069 -3.499999999999999 18.0
    vertex 4.949747468305831 -4.949747468305831 20.0
    vertex 4.949747468305831 -4.949747468305831 18.0
  endloop
endfacet
facet normal 0.7933533402912352 -0.6087614290087209 -0.0
  outer loop
    vertex 4.949747468305831 -4.949747468305831 20.0
    vertex 6.062177826491069 -3.499999999999999 18.0
    vertex 6.062177826491069 -3.499999999999999 20.0
  endloop
endfacet
facet normal -0.382683432365088 0.9238795325112875 -9.183606183305587e-31
  outer loop
    vertex -3.499999999999999 6.062177826491076 20.0
    vertex -1.8117333157176452 6.761480784023479 18.0
    vertex -3.499999999999999 6.062177826491076 18.0
  endloop
endfacet
facet normal -0.382683432365088 0.9238795325112875 -9.183606183305587e-31
  outer loop
    vertex -1.8117333157176452 6.761480784023479 18.0
    vertex -3.499999999999999 6.062177826491076 20.0
    vertex -1.8117333157176452 6.761480784023479 20.0
  endloop
endfacet
facet normal 0.3826834323650892 -0.9238795325112871 0.0
  outer loop
    vertex 3.499999999999994 -6.062177826491069 20.0
    vertex 1.8117333157176425 -6.761480784023473 18.0
    vertex 3.499999999999994 -6.062177826491069 18.0
  endloop
endfacet
facet normal 0.3826834323650892 -0.9238795325112871 0.0
  outer loop
    vertex 1.8117333157176425 -6.761480784023473 18.0
    vertex 3.499999999999994 -6.062177826491069 20.0
    vertex 1.8117333157176425 -6.761480784023473 20.0
  endloop
endfacet
facet normal 0.9238795325112871 -0.3826834323650894 -9.183606183305583e-31
  outer loop
    vertex 6.761480784023475 -1.8117333157176452 18.0
    vertex 6.062177826491069 -3.499999999999999 20.0
    vertex 6.062177826491069 -3.499999999999999 18.0
  endloop
endfacet
facet normal 0.9238795325112871 -0.3826834323650894 -9.183606183305583e-31
  outer loop
    vertex 6.062177826491069 -3.499999999999999 20.0
    vertex 6.761480784023475 -1.8117333157176452 18.0
    vertex 6.761480784023475 -1.8117333157176452 20.0
  endloop
endfacet
facet normal 0.1305261922200548 0.99144486137381 -0.0
  outer loop
    vertex 0.0 7.000000000000007 20.0
    vertex 1.8117333157176452 6.761480784023479 18.0
    vertex 0.0 7.000000000000007 18.0
  endloop
endfacet
facet normal 0.1305261922200548 0.99144486137381 -0.0
  outer loop
    vertex 1.8117333157176452 6.761480784023479 18.0
    vertex 0.0 7.000000000000007 20.0
    vertex 1.8117333157176452 6.761480784023479 20.0
  endloop
endfacet
facet normal 0.6087614290087194 -0.7933533402912363 0.0
  outer loop
    vertex 4.949747468305831 -4.949747468305831 20.0
    vertex 3.499999999999994 -6.062177826491069 18.0
    vertex 4.949747468305831 -4.949747468305831 18.0
  endloop
endfacet
facet normal 0.6087614290087194 -0.7933533402912363 0.0
  outer loop
    vertex 3.499999999999994 -6.062177826491069 18.0
    vertex 4.949747468305831 -4.949747468305831 20.0
    vertex 3.499999999999994 -6.062177826491069 20.0
  endloop
endfacet
facet normal -0.13052619222005155 -0.9914448613738105 0.0
  outer loop
    vertex -2.8199664825478975e-15 -6.999999999999996 20.0
    vertex -1.811733315717651 -6.761480784023473 18.0
    vertex -2.8199664825478975e-15 -6.999999999999996 18.0
  endloop
endfacet
facet normal -0.13052619222005155 -0.9914448613738105 0.0
  outer loop
    vertex -1.811733315717651 -6.761480784023473 18.0
    vertex -2.8199664825478975e-15 -6.999999999999996 20.0
    vertex -1.811733315717651 -6.761480784023473 20.0
  endloop
endfacet
facet normal -0.6087614290087211 0.793353340291235 -0.0
  outer loop
    vertex -4.949747468305834 4.949747468305835 20.0
    vertex -3.499999999999999 6.062177826491076 18.0
    vertex -4.949747468305834 4.949747468305835 18.0
  endloop
endfacet
facet normal -0.6087614290087211 0.793353340291235 -0.0
  outer loop
    vertex -3.499999999999999 6.062177826491076 18.0
    vertex -4.949747468305834 4.949747468305835 20.0
    vertex -3.499999999999999 6.062177826491076 20.0
  endloop
endfacet
facet normal -1.0 2.0142617732484983e-16 0.0
  outer loop
    vertex -6.062177826491071 3.500000000000006 20.0
    vertex -6.062177826491073 -3.499999999999994 18.0
    vertex -6.062177826491073 -3.499999999999994 20.0
  endloop
endfacet
facet normal -1.0 2.0142617732484983e-16 0.0
  outer loop
    vertex -6.062177826491073 -3.499999999999994 18.0
    vertex -6.062177826491071 3.500000000000006 20.0
    vertex -6.062177826491071 3.500000000000006 18.0
  endloop
endfacet
facet normal -0.1305261922200548 0.99144486137381 -0.0
  outer loop
    vertex -1.8117333157176452 6.761480784023479 20.0
    vertex 0.0 7.000000000000007 18.0
    vertex -1.8117333157176452 6.761480784023479 18.0
  endloop
endfacet
facet normal -0.1305261922200548 0.99144486137381 -0.0
  outer loop
    vertex 0.0 7.000000000000007 18.0
    vertex -1.8117333157176452 6.761480784023479 20.0
    vertex 0.0 7.000000000000007 20.0
  endloop
endfacet
facet normal 1.0 -0.0 -0.0
  outer loop
    vertex 1.8409819999999992 2.499263000000006 18.0
    vertex 1.8409819999999992 2.8199664825478975e-15 20.0
    vertex 1.8409819999999992 2.8199664825478975e-15 18.0
  endloop
endfacet
facet normal 1.0 -0.0 -0.0
  outer loop
    vertex 1.8409819999999992 2.8199664825478975e-15 20.0
    vertex 1.8409819999999992 2.499263000000006 18.0
    vertex 1.8409819999999992 2.499263000000006 20.0
  endloop
endfacet
facet normal 0.7933533402912364 0.6087614290087191 -0.0
  outer loop
    vertex 4.949747468305834 4.949747468305835 18.0
    vertex 6.062177826491069 3.5000000000000004 20.0
    vertex 6.062177826491069 3.5000000000000004 18.0
  endloop
endfacet
facet normal 0.7933533402912364 0.6087614290087191 -0.0
  outer loop
    vertex 6.062177826491069 3.5000000000000004 20.0
    vertex 4.949747468305834 4.949747468305835 18.0
    vertex 4.949747468305834 4.949747468305835 20.0
  endloop
endfacet
facet normal 0.0 -1.0 0.0
  outer loop
    vertex 4.317288999999998 2.499263000000006 20.0
    vertex 1.8409819999999992 2.499263000000006 18.0
    vertex 4.317288999999998 2.499263000000006 18.0
  endloop
endfacet
facet normal 0.0 -1.0 0.0
  outer loop
    vertex 1.8409819999999992 2.499263000000006 18.0
    vertex 4.317288999999998 2.499263000000006 20.0
    vertex 1.8409819999999992 2.499263000000006 20.0
  endloop
endfacet
facet normal -1.0 0.0 0.0
  outer loop
    vertex 4.317288999999998 2.499263000000006 20.0
    vertex 4.317288999999998 1.806191000000006 18.0
    vertex 4.317288999999998 1.806191000000006 20.0
  endloop
endfacet
facet normal -1.0 0.0 0.0
  outer loop
    vertex 4.317288999999998 1.806191000000006 18.0
    vertex 4.317288999999998 2.499263000000006 20.0
    vertex 4.317288999999998 2.499263000000006 18.0
  endloop
endfacet
facet normal -0.0 1.0 -0.0
  outer loop
    vertex 2.6875600000000004 1.806191000000006 20.0
    vertex 4.317288999999998 1.806191000000006 18.0
    vertex 2.6875600000000004 1.806191000000006 18.0
  endloop
endfacet
facet normal -0.0 1.0 -0.0
  outer loop
    vertex 4.317288999999998 1.806191000000006 18.0
    vertex 2.6875600000000004 1.806191000000006 20.0
    vertex 4.317288999999998 1.806191000000006 20.0
  endloop
endfacet
facet normal -1.0 0.0 0.0
  outer loop
    vertex 2.6875600000000004 1.806191000000006 20.0
    vertex 2.6875600000000004 0.8290190000000024 18.0
    vertex 2.6875600000000004 0.8290190000000024 20.0
  endloop
endfacet
facet normal -1.0 0.0 0.0
  outer loop
    vertex 2.6875600000000004 0.8290190000000024 18.0
    vertex 2.6875600000000004 1.806191000000006 20.0
    vertex 2.6875600000000004 1.806191000000006 18.0
  endloop
endfacet
facet normal 0.0 -1.0 0.0
  outer loop
    vertex 6.890857578102592 0.8290190000000024 20.0
    vertex 2.6875600000000004 0.8290190000000024 18.0
    vertex 6.890857578102592 0.8290190000000024 18.0
  endloop
endfacet
facet normal 0.0 -1.0 0.0
  outer loop
    vertex 2.6875600000000004 0.8290190000000024 18.0
    vertex 6.890857578102592 0.8290190000000024 20.0
    vertex 2.6875600000000004 0.8290190000000024 20.0
  endloop
endfacet
facet normal 0.9914448613738105 0.13052619222005232 -0.0
  outer loop
    vertex 6.761480784023475 1.8117333157176494 18.0
    vertex 6.890857578102592 0.8290190000000024 20.0
    vertex 6.890857578102592 0.8290190000000024 18.0
  endloop
endfacet
facet normal 0.9914448613738105 0.13052619222005232 -0.0
  outer loop
    vertex 6.890857578102592 0.8290190000000024 20.0
    vertex 6.761480784023475 1.8117333157176494 18.0
    vertex 6.761480784023475 1.8117333157176494 20.0
  endloop
endfacet
facet normal -0.0 -0.0 1.0
  outer loop
    vertex -4.949747468305836 -4.949747468305826 20.0
    vertex -6.062177826491071 3.500000000000006 20.0
    vertex -6.062177826491073 -3.499999999999994 20.0
  endloop
endfacet
facet normal -0.0 -0.0 1.0
  outer loop
    vertex -6.062177826491071 3.500000000000006 20.0
    vertex -4.949747468305836 -4.949747468305826 20.0
    vertex -4.949747468305834 4.949747468305835 20.0
  endloop
endfacet
facet normal -0.0 -0.0 1.0
  outer loop
    vertex -4.949747468305834 4.949747468305835 20.0
    vertex -4.949747468305836 -4.949747468305826 20.0
    vertex -3.500000000000005 -6.062177826491066 20.0
  endloop
endfacet
facet normal -0.0 -0.0 1.0
  outer loop
    vertex -4.949747468305834 4.949747468305835 20.0
    vertex -3.500000000000005 -6.062177826491066 20.0
    vertex -3.499999999999999 6.062177826491076 20.0
  endloop
endfacet
facet normal -0.0 -0.0 1.0
  outer loop
    vertex -3.499999999999999 6.062177826491076 20.0
    vertex -3.500000000000005 -6.062177826491066 20.0
    vertex -1.811733315717651 -6.761480784023473 20.0
  endloop
endfacet
facet normal -0.0 -0.0 1.0
  outer loop
    vertex -3.499999999999999 6.062177826491076 20.0
    vertex -1.811733315717651 -6.761480784023473 20.0
    vertex -1.9999999999999998 -1.999999999999999 20.0
  endloop
endfacet
facet normal -0.0 -0.0 1.0
  outer loop
    vertex -1.9999999999999998 -1.999999999999999 20.0
    vertex -1.811733315717651 -6.761480784023473 20.0
    vertex 1.7412049999999997 -1.9999999999999991 20.0
  endloop
endfacet
facet normal -0.0 -0.0 1.0
  outer loop
    vertex 1.7412049999999997 -1.9999999999999991 20.0
    vertex -1.811733315717651 -6.761480784023473 20.0
    vertex -2.8199664825478975e-15 -6.999999999999996 20.0
  endloop
endfacet
facet normal -0.0 -0.0 1.0
  outer loop
    vertex 1.7412049999999997 -1.9999999999999991 20.0
    vertex -2.8199664825478975e-15 -6.999999999999996 20.0
    vertex 1.8117333157176425 -6.761480784023473 20.0
  endloop
endfacet
facet normal -0.0 -0.0 1.0
  outer loop
    vertex 1.7412049999999997 -1.9999999999999991 20.0
    vertex 1.8117333157176425 -6.761480784023473 20.0
    vertex 1.7412050000000001 1.9999999999999996 20.0
  endloop
endfacet
facet normal -0.0 -0.0 1.0
  outer loop
    vertex -3.499999999999999 6.062177826491076 20.0
    vertex -1.9999999999999998 1.9999999999999996 20.0
    vertex -1.8117333157176452 6.761480784023479 20.0
  endloop
endfacet
facet normal -0.0 -0.0 1.0
  outer loop
    vertex -1.9999999999999998 1.9999999999999996 20.0
    vertex -3.499999999999999 6.062177826491076 20.0
    vertex -1.9999999999999998 -1.999999999999999 20.0
  endloop
endfacet
facet normal -0.0 -0.0 1.0
  outer loop
    vertex -1.8117333157176452 6.761480784023479 20.0
    vertex -1.9999999999999998 1.9999999999999996 20.0
    vertex 1.7412050000000001 1.9999999999999996 20.0
  endloop
endfacet
facet normal -0.0 -0.0 1.0
  outer loop
    vertex -1.8117333157176452 6.761480784023479 20.0
    vertex 1.7412050000000001 1.9999999999999996 20.0
    vertex 0.0 7.000000000000007 20.0
  endloop
endfacet
facet normal -0.0 -0.0 1.0
  outer loop
    vertex 0.0 7.000000000000007 20.0
    vertex 1.7412050000000001 1.9999999999999996 20.0
    vertex 1.8117333157176452 6.761480784023479 20.0
  endloop
endfacet
facet normal -0.0 -0.0 1.0
  outer loop
    vertex 1.8117333157176452 6.761480784023479 20.0
    vertex 1.7412050000000001 1.9999999999999996 20.0
    vertex 1.8117333157176425 -6.761480784023473 20.0
  endloop
endfacet
facet normal -0.0 -0.0 1.0
  outer loop
    vertex 1.8117333157176452 6.761480784023479 20.0
    vertex 1.8117333157176425 -6.761480784023473 20.0
    vertex 1.8409819999999992 2.8199664825478975e-15 20.0
  endloop
endfacet
facet normal -0.0 -0.0 1.0
  outer loop
    vertex 1.8409819999999992 2.8199664825478975e-15 20.0
    vertex 1.8117333157176425 -6.761480784023473 20.0
    vertex 3.499999999999994 -6.062177826491069 20.0
  endloop
endfacet
facet normal -0.0 -0.0 1.0
  outer loop
    vertex 1.8409819999999992 2.8199664825478975e-15 20.0
    vertex 3.499999999999994 -6.062177826491069 20.0
    vertex 6.999999999999997 2.8199664825478975e-15 20.0
  endloop
endfacet
facet normal -0.0 -0.0 1.0
  outer loop
    vertex 6.999999999999997 2.8199664825478975e-15 20.0
    vertex 3.499999999999994 -6.062177826491069 20.0
    vertex 4.949747468305831 -4.949747468305831 20.0
  endloop
endfacet
facet normal -0.0 -0.0 1.0
  outer loop
    vertex 6.999999999999997 2.8199664825478975e-15 20.0
    vertex 4.949747468305831 -4.949747468305831 20.0
    vertex 6.062177826491069 -3.499999999999999 20.0
  endloop
endfacet
facet normal -0.0 -0.0 1.0
  outer loop
    vertex 6.999999999999997 2.8199664825478975e-15 20.0
    vertex 6.062177826491069 -3.499999999999999 20.0
    vertex 6.761480784023475 -1.8117333157176452 20.0
  endloop
endfacet
facet normal -0.0 -0.0 1.0
  outer loop
    vertex 6.890857578102592 0.8290190000000024 20.0
    vertex 2.6875600000000004 1.806191000000006 20.0
    vertex 2.6875600000000004 0.8290190000000024 20.0
  endloop
endfacet
facet normal -0.0 -0.0 1.0
  outer loop
    vertex 2.6875600000000004 1.806191000000006 20.0
    vertex 6.890857578102592 0.8290190000000024 20.0
    vertex 4.317288999999998 1.806191000000006 20.0
  endloop
endfacet
facet normal -0.0 -0.0 1.0
  outer loop
    vertex 4.317288999999998 1.806191000000006 20.0
    vertex 6.890857578102592 0.8290190000000024 20.0
    vertex 4.317288999999998 2.499263000000006 20.0
  endloop
endfacet
facet normal -0.0 -0.0 1.0
  outer loop
    vertex 4.317288999999998 2.499263000000006 20.0
    vertex 6.890857578102592 0.8290190000000024 20.0
    vertex 4.949747468305834 4.949747468305835 20.0
  endloop
endfacet
facet normal -0.0 -0.0 1.0
  outer loop
    vertex 4.949747468305834 4.949747468305835 20.0
    vertex 6.890857578102592 0.8290190000000024 20.0
    vertex 6.062177826491069 3.5000000000000004 20.0
  endloop
endfacet
facet normal -0.0 -0.0 1.0
  outer loop
    vertex 6.062177826491069 3.5000000000000004 20.0
    vertex 6.890857578102592 0.8290190000000024 20.0
    vertex 6.761480784023475 1.8117333157176494 20.0
  endloop
endfacet
facet normal -0.0 -0.0 1.0
  outer loop
    vertex 1.8117333157176452 6.761480784023479 20.0
    vertex 1.8409819999999992 2.499263000000006 20.0
    vertex 3.499999999999999 6.062177826491076 20.0
  endloop
endfacet
facet normal -0.0 -0.0 1.0
  outer loop
    vertex 1.8409819999999992 2.499263000000006 20.0
    vertex 1.8117333157176452 6.761480784023479 20.0
    vertex 1.8409819999999992 2.8199664825478975e-15 20.0
  endloop
endfacet
facet normal -0.0 -0.0 1.0
  outer loop
    vertex 3.499999999999999 6.062177826491076 20.0
    vertex 1.8409819999999992 2.499263000000006 20.0
    vertex 4.317288999999998 2.499263000000006 20.0
  endloop
endfacet
facet normal -0.0 -0.0 1.0
  outer loop
    vertex 3.499999999999999 6.062177826491076 20.0
    vertex 4.317288999999998 2.499263000000006 20.0
    vertex 4.949747468305834 4.949747468305835 20.0
  endloop
endfacet
facet normal 0.0 0.0 -1.0
  outer loop
    vertex 3.499999999999999 6.062177826491076 18.0
    vertex 1.8409819999999992 2.499263000000006 18.0
    vertex 1.8117333157176452 6.761480784023479 18.0
  endloop
endfacet
facet normal 0.0 0.0 -1.0
  outer loop
    vertex 1.8409819999999992 2.499263000000006 18.0
    vertex 3.499999999999999 6.062177826491076 18.0
    vertex 4.317288999999998 2.499263000000006 18.0
  endloop
endfacet
facet normal 0.0 0.0 -1.0
  outer loop
    vertex 4.317288999999998 2.499263000000006 18.0
    vertex 3.499999999999999 6.062177826491076 18.0
    vertex 4.949747468305834 4.949747468305835 18.0
  endloop
endfacet
facet normal 0.0 0.0 -1.0
  outer loop
    vertex 4.317288999999998 2.499263000000006 18.0
    vertex 4.949747468305834 4.949747468305835 18.0
    vertex 4.317288999999998 1.806191000000006 18.0
  endloop
endfacet
facet normal 0.0 0.0 -1.0
  outer loop
    vertex 4.317288999999998 1.806191000000006 18.0
    vertex 2.6875600000000004 0.8290190000000024 18.0
    vertex 2.6875600000000004 1.806191000000006 18.0
  endloop
endfacet
facet normal 0.0 0.0 -1.0
  outer loop
    vertex 2.6875600000000004 0.8290190000000024 18.0
    vertex 4.317288999999998 1.806191000000006 18.0
    vertex 6.890857578102592 0.8290190000000024 18.0
  endloop
endfacet
facet normal 0.0 0.0 -1.0
  outer loop
    vertex 6.890857578102592 0.8290190000000024 18.0
    vertex 4.317288999999998 1.806191000000006 18.0
    vertex 4.949747468305834 4.949747468305835 18.0
  endloop
endfacet
facet normal 0.0 0.0 -1.0
  outer loop
    vertex 6.890857578102592 0.8290190000000024 18.0
    vertex 4.949747468305834 4.949747468305835 18.0
    vertex 6.062177826491069 3.5000000000000004 18.0
  endloop
endfacet
facet normal 0.0 0.0 -1.0
  outer loop
    vertex 6.890857578102592 0.8290190000000024 18.0
    vertex 6.062177826491069 3.5000000000000004 18.0
    vertex 6.761480784023475 1.8117333157176494 18.0
  endloop
endfacet
facet normal 0.0 0.0 -1.0
  outer loop
    vertex -6.062177826491071 3.500000000000006 18.0
    vertex -4.949747468305836 -4.949747468305826 18.0
    vertex -6.062177826491073 -3.499999999999994 18.0
  endloop
endfacet
facet normal 0.0 0.0 -1.0
  outer loop
    vertex -4.949747468305836 -4.949747468305826 18.0
    vertex -6.062177826491071 3.500000000000006 18.0
    vertex -4.949747468305834 4.949747468305835 18.0
  endloop
endfacet
facet normal 0.0 0.0 -1.0
  outer loop
    vertex -4.949747468305836 -4.949747468305826 18.0
    vertex -4.949747468305834 4.949747468305835 18.0
    vertex -3.500000000000005 -6.062177826491066 18.0
  endloop
endfacet
facet normal 0.0 0.0 -1.0
  outer loop
    vertex -3.500000000000005 -6.062177826491066 18.0
    vertex -4.949747468305834 4.949747468305835 18.0
    vertex -3.499999999999999 6.062177826491076 18.0
  endloop
endfacet
facet normal 0.0 0.0 -1.0
  outer loop
    vertex -3.500000000000005 -6.062177826491066 18.0
    vertex -3.499999999999999 6.062177826491076 18.0
    vertex -1.811733315717651 -6.761480784023473 18.0
  endloop
endfacet
facet normal 0.0 0.0 -1.0
  outer loop
    vertex -1.811733315717651 -6.761480784023473 18.0
    vertex -3.499999999999999 6.062177826491076 18.0
    vertex -1.8117333157176452 6.761480784023479 18.0
  endloop
endfacet
facet normal 0.0 0.0 -1.0
  outer loop
    vertex -1.811733315717651 -6.761480784023473 18.0
    vertex -1.8117333157176452 6.761480784023479 18.0
    vertex -2.8199664825478975e-15 -6.999999999999996 18.0
  endloop
endfacet
facet normal 0.0 0.0 -1.0
  outer loop
    vertex -2.8199664825478975e-15 -6.999999999999996 18.0
    vertex -1.8117333157176452 6.761480784023479 18.0
    vertex 0.0 7.000000000000007 18.0
  endloop
endfacet
facet normal 0.0 0.0 -1.0
  outer loop
    vertex -2.8199664825478975e-15 -6.999999999999996 18.0
    vertex 0.0 7.000000000000007 18.0
    vertex 1.8117333157176425 -6.761480784023473 18.0
  endloop
endfacet
facet normal 0.0 0.0 -1.0
  outer loop
    vertex 1.8117333157176425 -6.761480784023473 18.0
    vertex 0.0 7.000000000000007 18.0
    vertex 1.8117333157176452 6.761480784023479 18.0
  endloop
endfacet
facet normal 0.0 0.0 -1.0
  outer loop
    vertex 1.8117333157176425 -6.761480784023473 18.0
    vertex 1.8117333157176452 6.761480784023479 18.0
    vertex 1.8409819999999992 2.8199664825478975e-15 18.0
  endloop
endfacet
facet normal 0.0 0.0 -1.0
  outer loop
    vertex 1.8117333157176425 -6.761480784023473 18.0
    vertex 1.8409819999999992 2.8199664825478975e-15 18.0
    vertex 3.499999999999994 -6.062177826491069 18.0
  endloop
endfacet
facet normal 0.0 0.0 -1.0
  outer loop
    vertex 1.8409819999999992 2.8199664825478975e-15 18.0
    vertex 1.8117333157176452 6.761480784023479 18.0
    vertex 1.8409819999999992 2.499263000000006 18.0
  endloop
endfacet
facet normal 0.0 0.0 -1.0
  outer loop
    vertex 3.499999999999994 -6.062177826491069 18.0
    vertex 1.8409819999999992 2.8199664825478975e-15 18.0
    vertex 6.999999999999997 2.8199664825478975e-15 18.0
  endloop
endfacet
facet normal 0.0 0.0 -1.0
  outer loop
    vertex 3.499999999999994 -6.062177826491069 18.0
    vertex 6.999999999999997 2.8199664825478975e-15 18.0
    vertex 4.949747468305831 -4.949747468305831 18.0
  endloop
endfacet
facet normal 0.0 0.0 -1.0
  outer loop
    vertex 4.949747468305831 -4.949747468305831 18.0
    vertex 6.999999999999997 2.8199664825478975e-15 18.0
    vertex 6.062177826491069 -3.499999999999999 18.0
  endloop
endfacet
facet normal 0.0 0.0 -1.0
  outer loop
    vertex 6.062177826491069 -3.499999999999999 18.0
    vertex 6.999999999999997 2.8199664825478975e-15 18.0
    vertex 6.761480784023475 -1.8117333157176452 18.0
  endloop
endfacet
facet normal -0.6087614290087219 -0.7933533402912343 0.0
  outer loop
    vertex -3.500000000000005 -6.062177826491066 20.0
    vertex -4.949747468305836 -4.949747468305826 18.0
    vertex -3.500000000000005 -6.062177826491066 18.0
  endloop
endfacet
facet normal -0.6087614290087219 -0.7933533402912343 0.0
  outer loop
    vertex -4.949747468305836 -4.949747468305826 18.0
    vertex -3.500000000000005 -6.062177826491066 20.0
    vertex -4.949747468305836 -4.949747468305826 20.0
  endloop
endfacet
facet normal 0.382683432365088 0.9238795325112875 -9.183606183305587e-31
  outer loop
    vertex 1.8117333157176452 6.761480784023479 20.0
    vertex 3.499999999999999 6.062177826491076 18.0
    vertex 1.8117333157176452 6.761480784023479 18.0
  endloop
endfacet
facet normal 0.382683432365088 0.9238795325112875 -9.183606183305587e-31
  outer loop
    vertex 3.499999999999999 6.062177826491076 18.0
    vertex 1.8117333157176452 6.761480784023479 20.0
    vertex 3.499999999999999 6.062177826491076 20.0
  endloop
endfacet
facet normal -0.7933533402912345 0.6087614290087217 0.0
  outer loop
    vertex -4.949747468305834 4.949747468305835 20.0
    vertex -6.062177826491071 3.500000000000006 18.0
    vertex -6.062177826491071 3.500000000000006 20.0
  endloop
endfacet
facet normal -0.7933533402912345 0.6087614290087217 0.0
  outer loop
    vertex -6.062177826491071 3.500000000000006 18.0
    vertex -4.949747468305834 4.949747468305835 20.0
    vertex -4.949747468305834 4.949747468305835 18.0
  endloop
endfacet
facet normal -0.0 1.0 -0.0
  outer loop
    vertex 1.8409819999999992 2.8199664825478975e-15 20.0
    vertex 6.999999999999997 2.8199664825478975e-15 18.0
    vertex 1.8409819999999992 2.8199664825478975e-15 18.0
  endloop
endfacet
facet normal -0.0 1.0 -0.0
  outer loop
    vertex 6.999999999999997 2.8199664825478975e-15 18.0
    vertex 1.8409819999999992 2.8199664825478975e-15 20.0
    vertex 6.999999999999997 2.8199664825478975e-15 20.0
  endloop
endfacet
facet normal 0.9914448613738105 -0.13052619222005155 -0.0
  outer loop
    vertex 6.999999999999997 2.8199664825478975e-15 18.0
    vertex 6.761480784023475 -1.8117333157176452 20.0
    vertex 6.761480784023475 -1.8117333157176452 18.0
  endloop
endfacet
facet normal 0.9914448613738105 -0.13052619222005155 -0.0
  outer loop
    vertex 6.761480784023475 -1.8117333157176452 20.0
    vertex 6.999999999999997 2.8199664825478975e-15 18.0
    vertex 6.999999999999997 2.8199664825478975e-15 20.0
  endloop
endfacet
facet normal 0.6087614290087211 0.793353340291235 -0.0
  outer loop
    vertex 3.499999999999999 6.062177826491076 20.0
    vertex 4.949747468305834 4.949747468305835 18.0
    vertex 3.499999999999999 6.062177826491076 18.0
  endloop
endfacet
facet normal 0.6087614290087211 0.793353340291235 -0.0
  outer loop
    vertex 4.949747468305834 4.949747468305835 18.0
    vertex 3.499999999999999 6.062177826491076 20.0
    vertex 4.949747468305834 4.949747468305835 20.0
  endloop
endfacet
facet normal -0.38268343236509 -0.9238795325112867 0.0
  outer loop
    vertex -1.811733315717651 -6.761480784023473 20.0
    vertex -3.500000000000005 -6.062177826491066 18.0
    vertex -1.811733315717651 -6.761480784023473 18.0
  endloop
endfacet
facet normal -0.38268343236509 -0.9238795325112867 0.0
  outer loop
    vertex -3.500000000000005 -6.062177826491066 18.0
    vertex -1.811733315717651 -6.761480784023473 20.0
    vertex -3.500000000000005 -6.062177826491066 20.0
  endloop
endfacet
facet normal 0.9238795325112867 0.3826834323650899 -9.18360618330558e-31
  outer loop
    vertex 6.062177826491069 3.5000000000000004 18.0
    vertex 6.761480784023475 1.8117333157176494 20.0
    vertex 6.761480784023475 1.8117333157176494 18.0
  endloop
endfacet
facet normal 0.9238795325112867 0.3826834323650899 -9.18360618330558e-31
  outer loop
    vertex 6.761480784023475 1.8117333157176494 20.0
    vertex 6.062177826491069 3.5000000000000004 18.0
    vertex 6.062177826491069 3.5000000000000004 20.0
  endloop
endfacet
facet normal -0.7933533402912354 -0.6087614290087203 -7.886141412441904e-31
  outer loop
    vertex -6.062177826491073 -3.499999999999994 20.0
    vertex -4.949747468305836 -4.949747468305826 18.0
    vertex -4.949747468305836 -4.949747468305826 20.0
  endloop
endfacet
facet normal -0.7933533402912354 -0.6087614290087203 -7.886141412441904e-31
  outer loop
    vertex -4.949747468305836 -4.949747468305826 18.0
    vertex -6.062177826491073 -3.499999999999994 20.0
    vertex -6.062177826491073 -3.499999999999994 18.0
  endloop
endfacet
facet normal 0.0 0.0 -1.0
  outer loop
    vertex 1.7412050000000001 1.9999999999999996 0.0
    vertex -1.9999999999999998 -1.999999999999999 0.0
    vertex -1.9999999999999998 1.9999999999999996 0.0
  endloop
endfacet
facet normal 0.0 0.0 -1.0
  outer loop
    vertex -1.9999999999999998 -1.999999999999999 0.0
    vertex 1.7412050000000001 1.9999999999999996 0.0
    vertex 1.7412049999999997 -1.9999999999999991 0.0
  endloop
endfacet
facet normal -8.812395257962182e-17 -1.0 -0.0
  outer loop
    vertex 1.7412049999999997 -1.9999999999999991 20.0
    vertex -1.9999999999999998 -1.999999999999999 0.0
    vertex 1.7412049999999997 -1.9999999999999991 0.0
  endloop
endfacet
facet normal -8.812395257962182e-17 -1.0 -0.0
  outer loop
    vertex -1.9999999999999998 -1.999999999999999 0.0
    vertex 1.7412049999999997 -1.9999999999999991 20.0
    vertex -1.9999999999999998 -1.999999999999999 20.0
  endloop
endfacet
facet normal -1.0 0.0 0.0
  outer loop
    vertex -1.9999999999999998 1.9999999999999996 20.0
    vertex -1.9999999999999998 -1.999999999999999 0.0
    vertex -1.9999999999999998 -1.999999999999999 20.0
  endloop
endfacet
facet normal -1.0 0.0 0.0
  outer loop
    vertex -1.9999999999999998 -1.999999999999999 0.0
    vertex -1.9999999999999998 1.9999999999999996 20.0
    vertex -1.9999999999999998 1.9999999999999996 0.0
  endloop
endfacet
facet normal -0.0 1.0 0.0
  outer loop
    vertex -1.9999999999999998 1.9999999999999996 20.0
    vertex 1.7412050000000001 1.9999999999999996 0.0
    vertex -1.9999999999999998 1.9999999999999996 0.0
  endloop
endfacet
facet normal -0.0 1.0 0.0
  outer loop
    vertex 1.7412050000000001 1.9999999999999996 0.0
    vertex -1.9999999999999998 1.9999999999999996 20.0
    vertex 1.7412050000000001 1.9999999999999996 20.0
  endloop
endfacet
facet normal 1.0 -8.812395257962183e-17 0.0
  outer loop
    vertex 1.7412050000000001 1.9999999999999996 0.0
    vertex 1.7412049999999997 -1.9999999999999991 20.0
    vertex 1.7412049999999997 -1.9999999999999991 0.0
  endloop
endfacet
facet normal 1.0 -8.812395257962183e-17 0.0
  outer loop
    vertex 1.7412049999999997 -1.9999999999999991 20.0
    vertex 1.7412050000000001 1.9999999999999996 0.0
    vertex 1.7412050000000001 1.9999999999999996 20.0
  endloop
endfacet
facet normal -0.0 -0.0 1.0
  outer loop
    vertex 1.7412049999999997 -1.9999999999999991 20.0
    vertex -1.9999999999999998 1.9999999999999996 20.0
    vertex -1.9999999999999998 -1.999999999999999 20.0
  endloop
endfacet
facet normal -0.0 -0.0 1.0
  outer loop
    vertex -1.9999999999999998 1.9999999999999996 20.0
    vertex 1.7412049999999997 -1.9999999999999991 20.0
    vertex 1.7412050000000001 1.9999999999999996 20.0
  endloop
endfacet
endsolid tighter
